# xmcd CD database file
#
# Track frame offsets:
#	150
#	12187
#	26286
#	36400
#	50862
#	64515
#	75884
#	88032
#	98732
#	109683
#	121218
#	131890
#	144763
#	158305
#	187667
#
# Disc length: 2668 seconds
#
# Revision: 2
# Processed by: cddbd v1.5.1PL0 Copyright (c) Steve Scherf et al.
# Submitted via: CDex 1.51
#
DISCID=ab0a6a0f
DTITLE=Sonny Rollins - My old flame
DYEAR=1900
DGENRE=Jazz
TTITLE0=On a slow boat to china
TTITLE1=With a song in my heart
TTITLE2=Scoops
TTITLE3=Newk's fadeway
TTITLE4=Whispering
TTITLE5=I know
TTITLE6=Time on my hands
TTITLE7=Mambo bounce
TTITLE8=Ihis love of mine
TTITLE9=Shadrack
TTITLE10=Morpheus
TTITLE11=Down
TTITLE12=Blue room
TTITLE13=My old flame
TTITLE14=Autobahn
EXTD=
EXTT0=
EXTT1=
EXTT2=
EXTT3=
EXTT4=
EXTT5=
EXTT6=
EXTT7=
EXTT8=
EXTT9=
EXTT10=
EXTT11=
EXTT12=
EXTT13=
EXTT14=
PLAYORDER=
